<svg width="50" height="50" viewBox="0 0 50 50" fill="none" xmlns="http://www.w3.org/2000/svg">
<g clip-path="url(#clip0_242_763)">
<path d="M36.129 26.5656C38.2913 24.3714 39.7568 21.587 40.3412 18.5624C40.9257 15.5377 40.603 12.4078 39.4137 9.566C38.2244 6.72421 36.2216 4.2974 33.657 2.59059C31.0925 0.88378 28.0806 -0.0268555 25 -0.0268555C21.9194 -0.0268555 18.9075 0.88378 16.343 2.59059C13.7784 4.2974 11.7756 6.72421 10.5863 9.566C9.39704 12.4078 9.07433 15.5377 9.65875 18.5624C10.2432 21.587 11.7087 24.3714 13.871 26.5656C9.78934 28.1701 6.28426 30.9646 3.81076 34.5862C1.33726 38.2078 0.0095534 42.4894 5.02351e-07 46.8751C-0.000232282 47.2855 0.0804393 47.692 0.237403 48.0712C0.394366 48.4505 0.624543 48.7951 0.914773 49.0853C1.205 49.3755 1.54959 49.6057 1.92884 49.7627C2.30809 49.9196 2.71455 50.0003 3.125 50.0001H46.875C47.2854 50.0003 47.6919 49.9196 48.0712 49.7627C48.4504 49.6057 48.795 49.3755 49.0852 49.0853C49.3755 48.7951 49.6056 48.4505 49.7626 48.0712C49.9196 47.692 50.0002 47.2855 50 46.8751C49.9904 42.4894 48.6627 38.2078 46.1892 34.5862C43.7157 30.9646 40.2107 28.1701 36.129 26.5656ZM25 6.25006C26.8542 6.25006 28.6668 6.79989 30.2085 7.83003C31.7502 8.86017 32.9518 10.3243 33.6614 12.0374C34.3709 13.7505 34.5566 15.6355 34.1949 17.454C33.8331 19.2726 32.9402 20.9431 31.6291 22.2542C30.318 23.5653 28.6475 24.4582 26.829 24.8199C25.0104 25.1817 23.1254 24.996 21.4123 24.2864C19.6993 23.5769 18.2351 22.3752 17.205 20.8335C16.1748 19.2918 15.625 17.4793 15.625 15.6251C15.6278 13.1395 16.6164 10.7565 18.3739 8.99898C20.1315 7.24142 22.5144 6.25281 25 6.25006ZM6.5613 43.7501C7.2874 40.2234 9.2068 37.0548 11.9962 34.7779C14.7855 32.5011 18.2744 31.2551 21.875 31.2501H28.125C31.7256 31.2551 35.2145 32.5011 38.0038 34.7779C40.7932 37.0548 42.7126 40.2234 43.4387 43.7501H6.5613Z" fill="#FFC700"/>
</g>
<defs>
<clipPath id="clip0_242_763">
<rect width="50" height="50" fill="white"/>
</clipPath>
</defs>
</svg>
