<svg width="50" height="50" viewBox="0 0 50 50" fill="none" xmlns="http://www.w3.org/2000/svg">
<path d="M39.5832 4.16675H18.7499C16.452 4.16675 14.5832 6.0355 14.5832 8.33342V19.9709L4.77696 29.7772C4.4857 30.0685 4.28735 30.4397 4.207 30.8438C4.12665 31.2478 4.16791 31.6667 4.32555 32.0473C4.4832 32.4279 4.75016 32.7532 5.09268 32.9822C5.4352 33.2111 5.8379 33.3333 6.24988 33.3334V43.7501C6.24988 44.3026 6.46937 44.8325 6.86008 45.2232C7.25078 45.6139 7.78068 45.8334 8.33322 45.8334H41.6665C42.2191 45.8334 42.749 45.6139 43.1397 45.2232C43.5304 44.8325 43.7499 44.3026 43.7499 43.7501V8.33342C43.7499 6.0355 41.8811 4.16675 39.5832 4.16675ZM22.9165 41.6668H10.4165V30.0292L16.6665 23.7792L22.9165 30.0292V41.6668ZM39.5832 41.6668H27.0832V33.3334C27.4956 33.3343 27.899 33.2127 28.2422 32.9839C28.5854 32.7552 28.8528 32.4296 29.0107 32.0486C29.1685 31.6675 29.2095 31.2482 29.1286 30.8438C29.0477 30.4394 28.8484 30.0681 28.5561 29.7772L18.7499 19.9709V8.33342H39.5832V41.6668Z" fill="#FFC700"/>
<path d="M22.9168 12.5H27.0835V16.6667H22.9168V12.5ZM31.2502 12.5H35.4168V16.6667H31.2502V12.5ZM31.2502 20.8979H35.4168V25H31.2502V20.8979ZM31.2502 29.1667H35.4168V33.3333H31.2502V29.1667ZM14.5835 31.25H18.7502V35.4167H14.5835V31.25Z" fill="#FFC700"/>
</svg>
