<svg width="25" height="25" viewBox="0 0 25 25" fill="none" xmlns="http://www.w3.org/2000/svg">
<path d="M12.5 1.5625C8.88672 1.5625 5.94727 4.42871 5.94727 8.04199C5.94727 8.84277 6.11816 9.7168 6.42578 10.5029H6.4209L6.4502 10.5615C6.47461 10.6152 6.49902 10.6689 6.52344 10.7227L12.5 23.4375L18.4473 10.7861L18.4766 10.7275C18.501 10.6738 18.5303 10.6201 18.5547 10.5615L18.5742 10.5078C18.8916 9.72168 19.0527 8.8916 19.0527 8.05176C19.0527 4.42871 16.1133 1.5625 12.5 1.5625ZM12.5 10.1025C11.2354 10.1025 10.21 9.07715 10.21 7.8125C10.21 6.54785 11.2354 5.52246 12.5 5.52246C13.7646 5.52246 14.79 6.54785 14.79 7.8125C14.79 9.07715 13.7646 10.1025 12.5 10.1025Z" fill="#FFC700"/>
</svg>
