<svg width="50" height="50" viewBox="0 0 50 50" fill="none" xmlns="http://www.w3.org/2000/svg">
<path d="M10.4167 18.2291L4.68758 11.7708C4.0973 11.0763 3.9848 10.3298 4.35008 9.53117C4.71396 8.73256 5.3473 8.33325 6.25008 8.33325H41.6667C42.8126 8.33325 43.7938 8.74158 44.6105 9.55825C45.4258 10.3735 45.8334 11.3541 45.8334 12.4999V37.4999C45.8334 38.6457 45.4258 39.627 44.6105 40.4437C43.7938 41.2589 42.8126 41.6666 41.6667 41.6666H14.5834C13.4376 41.6666 12.457 41.2589 11.6417 40.4437C10.8251 39.627 10.4167 38.6457 10.4167 37.4999V18.2291ZM18.7501 27.0832H37.5001C38.0904 27.0832 38.5848 26.8832 38.9834 26.4832C39.3834 26.0846 39.5834 25.5902 39.5834 24.9999C39.5834 24.4096 39.3834 23.9145 38.9834 23.5145C38.5848 23.1159 38.0904 22.9166 37.5001 22.9166H18.7501C18.1598 22.9166 17.6654 23.1159 17.2667 23.5145C16.8667 23.9145 16.6667 24.4096 16.6667 24.9999C16.6667 25.5902 16.8667 26.0846 17.2667 26.4832C17.6654 26.8832 18.1598 27.0832 18.7501 27.0832ZM18.7501 33.3332H31.2501C31.8404 33.3332 32.3355 33.1332 32.7355 32.7332C33.1341 32.3346 33.3334 31.8402 33.3334 31.2499C33.3334 30.6596 33.1341 30.1645 32.7355 29.7645C32.3355 29.3659 31.8404 29.1666 31.2501 29.1666H18.7501C18.1598 29.1666 17.6654 29.3659 17.2667 29.7645C16.8667 30.1645 16.6667 30.6596 16.6667 31.2499C16.6667 31.8402 16.8667 32.3346 17.2667 32.7332C17.6654 33.1332 18.1598 33.3332 18.7501 33.3332ZM18.7501 20.8333H37.5001C38.0904 20.8333 38.5848 20.6333 38.9834 20.2332C39.3834 19.8346 39.5834 19.3402 39.5834 18.7499C39.5834 18.1596 39.3834 17.6645 38.9834 17.2645C38.5848 16.8659 38.0904 16.6666 37.5001 16.6666H18.7501C18.1598 16.6666 17.6654 16.8659 17.2667 17.2645C16.8667 17.6645 16.6667 18.1596 16.6667 18.7499C16.6667 19.3402 16.8667 19.8346 17.2667 20.2332C17.6654 20.6333 18.1598 20.8333 18.7501 20.8333ZM14.5834 16.6666V37.4999H41.6667V12.4999H10.8855L14.5834 16.6666Z" fill="#FFC700"/>
</svg>
